<?xml version="1.0" encoding="UTF-8" standalone="no"?>
<svg
   xmlns:dc="http://purl.org/dc/elements/1.1/"
   xmlns:cc="http://creativecommons.org/ns#"
   xmlns:rdf="http://www.w3.org/1999/02/22-rdf-syntax-ns#"
   xmlns:svg="http://www.w3.org/2000/svg"
   xmlns="http://www.w3.org/2000/svg"
   xmlns:sodipodi="http://sodipodi.sourceforge.net/DTD/sodipodi-0.dtd"
   xmlns:inkscape="http://www.inkscape.org/namespaces/inkscape"
   height="800"
   width="1200"
   viewBox="-70.8 -51.00125 613.6 306.0075"
   version="1.1"
   id="svg4"
   sodipodi:docname="Star_Wars-Logo.wine.svg"
   inkscape:version="1.0.1 (3bc2e813f5, 2020-09-07)">
  <metadata
     id="metadata10">
    <rdf:RDF>
      <cc:Work
         rdf:about="">
        <dc:format>image/svg+xml</dc:format>
        <dc:type
           rdf:resource="http://purl.org/dc/dcmitype/StillImage" />
        <dc:title></dc:title>
      </cc:Work>
    </rdf:RDF>
  </metadata>
  <defs
     id="defs8" />
  <sodipodi:namedview
     pagecolor="#ffffff"
     bordercolor="#666666"
     borderopacity="1"
     objecttolerance="10"
     gridtolerance="10"
     guidetolerance="10"
     inkscape:pageopacity="0"
     inkscape:pageshadow="2"
     inkscape:window-width="1920"
     inkscape:window-height="1009"
     id="namedview6"
     showgrid="false"
     inkscape:zoom="0.35252222"
     inkscape:cx="421.74037"
     inkscape:cy="1091.3863"
     inkscape:window-x="-8"
     inkscape:window-y="-8"
     inkscape:window-maximized="1"
     inkscape:current-layer="svg4"
     inkscape:document-rotation="0" />
  <path
     d="M201.516 163.01h-14.388c-.507 0-.871-.572-.871-1.118 0-.194 7.656-24.877 7.656-24.877.273-.923.299-.95.403-.95h.013c.116 0 .13.027.402.95 0 0 7.656 24.683 7.656 24.877 0 .546-.39 1.118-.87 1.118m19.405-56.475a1.253 1.253 0 00-1.105-.897h-52.836a1.262 1.262 0 00-1.105.884s-29.206 96.417-29.206 96.6c0 .48.377.87.871.87h34.925a.917.917 0 00.546-.663l4.068-12.997a.878.878 0 01.793-.56l32.222-.025c.35.026.663.273.793.585l4.159 12.997c.065.3.273.572.546.676l34.366-.013c.48 0 .884-.364.884-.845 0-.169-29.921-96.612-29.921-96.612m99.563 39.366l-21.46.013s-.571-.169-.571-.819l-.013-10.827c0-.65.572-.819.572-.819h19.678c2.288 0 6.915 1.144 6.915 6.434s-5.121 6.018-5.121 6.018m102.89-8.383H472v-31.884h-62.52c-5.848 0-14.076 3.016-18.794 6.512-4.718 3.496-11.542 11.464-11.542 22.447 0 10.983 6.668 19.523 6.668 19.523 3.418 4.237 12.023 13.063 12.023 13.063.195.208.312.48.312.793 0 .662-.533 1.195-1.196 1.195h-48.157c-5.862-.026-6.265-2.352-6.265-2.69 0-.598.728-.975.728-.975 2.197-1.053 6.68-4.55 6.68-4.55 9.515-7.408 10.66-17.572 10.66-23.018 0-5.46-.82-15.117-10.581-23.578-9.761-8.462-22.122-8.696-22.122-8.696h-68.72v97.77c0 .311.286.558.598.558h38.253v-27.425c0-.48.74 0 .74 0l19.926 20.017c7.084 7.161 18.795 7.408 18.795 7.408l75.335-.013c12.855 0 20.004-6.992 21.966-8.942 1.95-1.963 8.462-9.28 8.462-21.407 0-12.114-5.537-18.314-7.903-21.16-2.105-2.548-10.502-11.439-12.257-13.285a.92.92 0 01-.338-.714c0-.43.247-.832.624-.95m-304.163 66.469c.26 0 .442-.182.52-.468 0 0 29.596-97.21 29.596-97.302 0-.26-.156-.545-.403-.571H112.44c-.182 0-.299.143-.338.338 0 .013-7.552 25.28-7.552 25.293-.052.208-.156.338-.338.338-.182 0-.338-.182-.364-.338l-7.902-25.306c-.026-.17-.156-.325-.338-.325l-40.293-.013a.39.39 0 00-.26.234l-7.084 25.397c-.039.221-.156.351-.351.351a.348.348 0 01-.338-.299l-7.513-25.371a.358.358 0 00-.299-.312H.581a.58.58 0 00-.572.584c0 .052.013.156.013.156l30.038 97.146c.078.286.26.468.52.468l32.3.013c.194-.026.39-.247.441-.481.013 0 11.243-36.147 11.243-36.147.065-.221.156-.35.338-.35.195 0 .3.155.351.337l10.957 36.316a.465.465 0 00.442.312h32.56M91.114.004c-5.862 0-14.076 3.015-18.794 6.512-4.72 3.496-11.542 11.464-11.542 22.447 0 10.983 6.667 19.523 6.667 19.523 3.419 4.237 12.023 13.127 12.023 13.127.195.208.312.481.312.78 0 .663-.533 1.209-1.195 1.209H0v34.756h94.455c12.842 0 20.003-6.993 21.966-8.955 1.95-1.95 8.449-9.268 8.449-21.395 0-12.114-5.524-18.379-7.89-21.225-2.106-2.548-10.502-11.386-12.257-13.219a.967.967 0 01-.338-.728c0-.429.247-.819.624-.949h45.492v66.471h34.977V32.056h42.464V.004zm305.067 40.268l-21.459.013s-.572-.169-.572-.819l-.013-10.827c0-.65.572-.819.572-.819h19.679c2.287 0 6.914 1.144 6.914 6.434s-5.12 6.018-5.12 6.018m28.309 23.266c-5.85-.026-6.265-2.352-6.265-2.69 0-.598.727-.975.727-.975 2.197-1.053 6.681-4.55 6.681-4.55 9.515-7.408 10.659-17.572 10.659-23.018 0-5.46-.82-15.117-10.58-23.578C415.951.265 403.59.005 403.59.005h-68.72V97.8c0 .312.287.56.599.56h38.252V70.946c0-.494.741 0 .741 0l19.926 20.004c7.083 7.161 18.794 7.408 18.794 7.408h58.815V63.54h-47.506zm-145.414-6.166h-14.389c-.533 0-.87-.572-.87-1.118 0-.208 7.655-24.877 7.655-24.877.273-.923.35-.95.403-.95h.013c.052 0 .13.027.403.95 0 0 7.655 24.67 7.655 24.877 0 .546-.35 1.118-.87 1.118M298.443.871A1.198 1.198 0 00297.338 0h-52.835c-.52.026-.962.377-1.105.858 0 0-29.18 96.443-29.18 96.625 0 .481.39.871.87.871h34.926c.286-.09.493-.364.558-.663l4.069-13.01a.886.886 0 01.793-.546h32.208a.956.956 0 01.806.559l4.16 12.997c.064.3.272.572.545.676l34.366-.013a.852.852 0 00.871-.858c0-.156-29.947-96.625-29.947-96.625"
     id="path2" />
  <path
     style="fill:#ab8100;fill-opacity:1;stroke:none;stroke-width:4.91339;stroke-linejoin:round"
     d="m 138.47242,359.24149 v -33.71164 l 77.83584,-0.24988 c 72.7104,-0.23343 77.85712,-0.36041 78.15903,-1.92836 0.20313,-1.05495 -4.26389,-6.67569 -12.02482,-15.13055 -6.87796,-7.49294 -13.88342,-16.19084 -15.81399,-19.63449 -4.3048,-7.67864 -7.8167,-18.547 -8.66334,-26.81065 -2.15505,-21.03457 10.95833,-43.60818 30.93792,-53.25709 16.71947,-8.07448 3.0818,-7.40541 157.30536,-7.71745 l 137.39521,-0.27799 v 31.26011 31.26011 h -41.48701 -41.48701 v 64.91497 64.91496 h -33.67769 -33.67769 v -65.4128 -65.4128 l -45.13441,0.25379 c -41.54791,0.23363 -45.15974,0.3854 -45.4532,1.90994 -0.19902,1.03396 3.96694,6.16824 11.0889,13.66631 19.21995,20.23501 24.72737,29.06084 27.41632,43.93565 5.66039,31.31227 -11.81014,59.82448 -42.15122,68.79151 -5.3585,1.58365 -13.5952,1.74604 -103.19574,2.0345 l -97.37246,0.31349 z"
     id="path2412"
     transform="matrix(0.51133333,0,0,0.51133333,-70.8,-102.53083)" />
  <path
     style="fill:#ab8100;fill-opacity:1;stroke:none;stroke-width:4.91339;stroke-linejoin:round"
     d="m 558.62091,391.52541 c -0.45002,-1.17273 53.57612,-182.57918 56.21616,-188.75999 l 0.93815,-2.19637 h 52.12623 c 40.52358,0 52.346,0.2716 53.11363,1.22021 1.17088,1.44692 58.7977,187.15993 58.7977,189.48639 0,1.44927 -3.17379,1.59789 -34.12348,1.59789 h -34.12349 l -4.11994,-12.93418 c -2.26596,-7.1138 -4.53515,-13.48328 -5.04263,-14.15439 -1.33782,-1.76917 -64.64212,-1.76917 -65.78038,0 -0.43178,0.67111 -2.57149,6.93077 -4.75491,13.91035 l -3.96985,12.69014 -34.37513,0.25656 c -28.81207,0.21504 -34.4604,0.0343 -34.90206,-1.11661 z m 127.48004,-80.30822 c 0,-2.22051 -14.59967,-49.43621 -15.60878,-50.47919 -1.13623,-1.17437 -17.09833,49.52535 -16.10062,51.13968 0.34118,0.55203 7.10926,0.95034 16.14837,0.95034 13.81059,0 15.56103,-0.1812 15.56103,-1.61083 z"
     id="path2414"
     transform="matrix(0.51133333,0,0,0.51133333,-70.8,-102.53083)" />
  <path
     style="fill:#ab8100;fill-opacity:1;stroke:none;stroke-width:4.91339;stroke-linejoin:round"
     d="m 794.12987,392.22276 c -0.35793,-0.35792 -0.65078,-43.62643 -0.65078,-96.15224 v -95.50147 l 66.62326,0.0193 c 38.75543,0.0112 69.4229,0.42406 73.31632,0.98691 27.69244,4.00335 49.63364,22.03679 55.93278,45.97106 2.16617,8.23067 2.16479,23.74517 -0.003,31.98184 -3.5842,13.6192 -12.5617,25.34172 -26.26083,34.29047 -7.26231,4.74401 -8.10139,6.75841 -3.94904,9.48062 2.42416,1.58924 6.69542,1.7548 52.22482,2.0244 l 49.5848,0.29361 v 33.68216 33.68216 l -60.7663,-0.34387 c -80.93258,-0.458 -73.71628,1.68985 -107.64153,-32.03836 -12.40724,-12.33516 -22.85967,-22.12651 -23.22763,-21.75855 -0.36796,0.36796 -0.66902,12.67585 -0.66902,27.35086 v 26.68184 h -36.93157 c -20.31237,0 -37.22442,-0.29285 -37.58235,-0.65078 z M 917.48399,278.15764 c 4.11357,-2.12721 6.14028,-6.60903 5.58797,-12.35708 -0.97761,-10.17416 -5.3211,-11.68973 -32.46446,-11.32774 l -20.49946,0.27339 -0.27774,11.16621 c -0.15275,6.14141 -0.0567,11.74216 0.21341,12.4461 0.77164,2.01088 43.51321,1.82989 47.44028,-0.20088 z"
     id="path2416"
     transform="matrix(0.51133333,0,0,0.51133333,-70.8,-102.53083)" />
  <path
     style="fill:#ab8100;fill-opacity:1;stroke:none;stroke-width:4.91339;stroke-linejoin:round"
     d="m 646.07819,503.14423 v -95.7001 l 71.50408,0.32425 c 80.18253,0.3636 75.39438,-0.0454 91.51546,7.81713 6.65463,3.24558 9.94494,5.69805 16.6189,12.38708 12.46885,12.49702 17.51297,24.59912 17.51297,42.01798 0,21.28309 -8.50117,36.94399 -26.80238,49.37552 -4.56811,3.10299 -8.30565,6.15341 -8.30565,6.77871 0,0.6253 0.92439,1.97373 2.05419,2.9965 1.95793,1.77244 4.49776,1.87218 54.19827,2.12844 46.18124,0.2381 52.20994,0.0972 52.7201,-1.23224 0.37932,-0.98848 -2.04465,-4.33841 -7.09831,-9.8099 -13.45884,-14.57157 -18.59777,-20.89415 -21.62564,-26.60666 -12.98916,-24.50588 -9.88294,-49.2357 8.49837,-67.65857 8.41234,-8.43137 17.11105,-13.23415 29.88811,-16.50196 7.20834,-1.84359 10.88393,-1.94439 70.89705,-1.94439 h 63.29459 v 30.74919 30.7492 h -47.8321 c -44.92003,0 -47.83208,0.10409 -47.83208,1.70983 0,0.94041 5.08354,7.20006 11.29677,13.91035 13.52954,14.61194 18.82718,21.27521 22.17305,27.88886 6.53446,12.91638 7.83566,31.59321 3.20616,46.01945 -4.88626,15.22642 -15.35634,27.47261 -29.40637,34.39478 -12.09497,5.95895 -10.70661,5.87641 -99.11701,5.89224 -76.54385,0.0137 -80.99495,-0.0811 -88.00528,-1.87403 -13.50382,-3.4537 -15.93372,-5.22961 -40.29933,-29.45311 -12.36324,-12.29113 -22.796,-22.34751 -23.18392,-22.34751 -0.38792,0 -0.7053,12.08004 -0.7053,26.84454 v 26.84453 H 683.66054 646.07819 Z M 769.0902,484.7943 c 8.84504,-4.6576 8.56935,-17.75428 -0.46396,-22.04087 -2.67232,-1.26809 -7.15552,-1.54834 -24.76926,-1.54834 -20.7649,0 -21.52808,0.0684 -22.13619,1.9844 -0.62889,1.98145 0.36387,21.27745 1.16602,22.66376 0.233,0.40267 9.95877,0.73213 21.61284,0.73213 18.66665,0 21.59413,-0.21323 24.59055,-1.79108 z"
     id="path2418"
     transform="matrix(0.51133333,0,0,0.51133333,-70.8,-102.53083)" />
  <path
     style="fill:#ab8100;fill-opacity:1;stroke:none;stroke-width:4.91339;stroke-linejoin:round"
     d="m 406.33358,597.13605 c 0.28794,-0.93955 12.85378,-42.56079 27.92409,-92.49162 15.0703,-49.93084 27.85697,-92.21098 28.41482,-93.95588 l 1.01426,-3.17253 h 53.0595 c 49.68853,0 53.09179,0.10853 53.56761,1.70829 1.07194,3.60394 51.68231,167.22456 54.85248,177.33514 1.83749,5.86024 3.34088,11.02172 3.34088,11.46994 0,0.44823 -15.51104,0.81495 -34.46896,0.81495 h -34.46897 l -4.33359,-13.42226 -4.33359,-13.42227 h -33.13114 -33.13114 l -4.2396,13.42227 -4.23961,13.42226 h -35.17528 c -33.04894,0 -35.14364,-0.10327 -34.65176,-1.70829 z m 127.9744,-78.33832 c 0.33219,-0.5375 -2.73858,-11.84881 -6.82391,-25.13625 -4.08534,-13.28745 -7.6694,-24.97194 -7.96457,-25.96554 -0.29518,-0.99361 -0.87445,-1.43288 -1.28727,-0.97617 -1.47235,1.6289 -15.86159,50.1204 -15.30387,51.5738 0.47434,1.23612 3.06933,1.48141 15.67206,1.48141 9.02735,0 15.34656,-0.39316 15.70756,-0.97725 z"
     id="path2420"
     transform="matrix(0.51133333,0,0,0.51133333,-70.8,-102.53083)" />
  <path
     style="fill:#ab8100;fill-opacity:1;stroke:none;stroke-width:4.91339;stroke-linejoin:round"
     d="m 197.70909,598.12548 c -0.24255,-0.40996 -13.24943,-42.2568 -28.90419,-92.99297 -15.65475,-50.73617 -28.86267,-93.46061 -29.35094,-94.9432 l -0.88776,-2.69561 38.68066,0.2552 38.68066,0.2552 6.94569,23.42796 c 7.96437,26.86403 8.13686,27.36541 9.08998,26.42218 0.39003,-0.38598 3.79186,-11.76016 7.5596,-25.27596 l 6.85046,-24.57418 39.68899,-0.25493 39.68899,-0.25493 1.52598,5.13575 c 6.38894,21.5022 14.12881,45.12228 14.86632,45.36812 0.48982,0.16327 3.40992,-8.1633 6.48909,-18.5035 3.07919,-10.3402 6.49191,-21.76547 7.58384,-25.38948 l 1.98531,-6.58911 h 36.07199 c 19.83959,0 36.05398,0.10982 36.03197,0.24404 -0.022,0.13422 -13.09277,43.07328 -29.04614,95.42012 l -29.00614,95.17608 -32.40701,0.25714 -32.407,0.25715 -2.10988,-7.0903 c -8.53042,-28.66674 -19.57294,-64.63805 -19.96218,-65.02728 -0.25861,-0.25862 -0.64651,-0.28719 -0.86198,-0.0634 -0.21547,0.22367 -5.38363,16.44021 -11.4848,36.03672 l -11.09303,35.63002 -31.88874,0.2573 c -17.53881,0.14151 -32.08719,-0.0781 -32.32974,-0.48808 z"
     id="path2422"
     transform="matrix(0.51133333,0,0,0.51133333,-70.8,-102.53083)" />
</svg>
